<mxfile modified="2021-09-14T01:44:06.397Z" host="app.diagrams.net" agent="5.0 (Macintosh; Intel Mac OS X 10_15_7) AppleWebKit/537.36 (KHTML, like Gecko) Chrome/93.0.4577.63 Safari/537.36" etag="Z_-htlWNakm9KYU3Vl-i" version="15.2.5" type="github">
  <diagram name="Page-1" id="9361dd3d-8414-5efd-6122-117bd74ce7a7">
    <mxGraphModel dx="786" dy="523" grid="1" gridSize="10" guides="1" tooltips="1" connect="1" arrows="1" fold="1" page="0" pageScale="1.5" pageWidth="826" pageHeight="1169" background="#ffffff" math="0" shadow="0">
      <root>
        <mxCell id="0" />
        <mxCell id="1" parent="0" />
        <mxCell id="zdmqq-vJ7v56Sh9Q-Qe6-90" value="Aluno compra crÃ©ditos" style="rounded=1;fontStyle=1;fillColor=#f5f5f5;strokeColor=#666666;fontColor=#333333;" parent="1" vertex="1">
          <mxGeometry x="50" y="31" width="670" height="30" as="geometry" />
        </mxCell>
        <mxCell id="vCzybXFXyTB3erlj9CWv-8" value="Front End" style="shape=umlLifeline;participant=umlBoundary;perimeter=lifelinePerimeter;whiteSpace=wrap;html=1;container=1;collapsible=0;recursiveResize=0;verticalAlign=top;spacingTop=36;labelBackgroundColor=#ffffff;outlineConnect=0;size=39;fillColor=#ffff88;strokeColor=#36393d;" parent="1" vertex="1">
          <mxGeometry x="177" y="81" width="49" height="799" as="geometry" />
        </mxCell>
        <mxCell id="vCzybXFXyTB3erlj9CWv-9" value="setStrategy()" style="edgeStyle=orthogonalEdgeStyle;rounded=0;orthogonalLoop=1;jettySize=auto;html=1;entryX=1.1;entryY=0.5;entryDx=0;entryDy=0;entryPerimeter=0;" parent="vCzybXFXyTB3erlj9CWv-8" source="vCzybXFXyTB3erlj9CWv-10" target="vCzybXFXyTB3erlj9CWv-11" edge="1">
          <mxGeometry x="0.519" y="-42" relative="1" as="geometry">
            <Array as="points">
              <mxPoint x="55" y="261" />
              <mxPoint x="55" y="290" />
            </Array>
            <mxPoint x="38" y="25" as="offset" />
          </mxGeometry>
        </mxCell>
        <mxCell id="vCzybXFXyTB3erlj9CWv-10" value="" style="html=1;points=[];perimeter=orthogonalPerimeter;fillColor=#ffe6cc;strokeColor=#d79b00;" parent="vCzybXFXyTB3erlj9CWv-8" vertex="1">
          <mxGeometry x="19" y="70" width="10" height="700" as="geometry" />
        </mxCell>
        <mxCell id="vCzybXFXyTB3erlj9CWv-11" value="" style="html=1;points=[];perimeter=orthogonalPerimeter;fillColor=#ffe6cc;strokeColor=#d79b00;" parent="vCzybXFXyTB3erlj9CWv-8" vertex="1">
          <mxGeometry x="25" y="275" width="10" height="30" as="geometry" />
        </mxCell>
        <mxCell id="vCzybXFXyTB3erlj9CWv-12" value="Aluno" style="shape=umlLifeline;participant=umlActor;perimeter=lifelinePerimeter;whiteSpace=wrap;html=1;container=1;collapsible=0;recursiveResize=0;verticalAlign=top;spacingTop=36;labelBackgroundColor=#ffffff;outlineConnect=0;" parent="1" vertex="1">
          <mxGeometry x="71" y="80" width="20" height="800" as="geometry" />
        </mxCell>
        <mxCell id="vCzybXFXyTB3erlj9CWv-13" value=":Usuario as Alunos" style="shape=umlLifeline;perimeter=lifelinePerimeter;whiteSpace=wrap;html=1;container=1;collapsible=0;recursiveResize=0;outlineConnect=0;shadow=1;strokeColor=#36393d;fillColor=#cce5ff;" parent="1" vertex="1">
          <mxGeometry x="466" y="81" width="100" height="729" as="geometry" />
        </mxCell>
        <mxCell id="vCzybXFXyTB3erlj9CWv-14" value="" style="html=1;points=[];perimeter=orthogonalPerimeter;fillColor=#ffe6cc;strokeColor=#d79b00;" parent="vCzybXFXyTB3erlj9CWv-13" vertex="1">
          <mxGeometry x="45" y="80" width="10" height="70" as="geometry" />
        </mxCell>
        <mxCell id="DbyMc_lAmt4OfeUwP1Hg-7" value="" style="html=1;points=[];perimeter=orthogonalPerimeter;fillColor=#ffe6cc;strokeColor=#d79b00;" vertex="1" parent="vCzybXFXyTB3erlj9CWv-13">
          <mxGeometry x="45" y="169" width="10" height="91" as="geometry" />
        </mxCell>
        <mxCell id="DbyMc_lAmt4OfeUwP1Hg-8" value="" style="html=1;points=[];perimeter=orthogonalPerimeter;fillColor=#ffe6cc;strokeColor=#d79b00;" vertex="1" parent="vCzybXFXyTB3erlj9CWv-13">
          <mxGeometry x="45" y="399" width="10" height="31" as="geometry" />
        </mxCell>
        <mxCell id="vCzybXFXyTB3erlj9CWv-15" value="Back End" style="shape=umlLifeline;participant=umlControl;perimeter=lifelinePerimeter;whiteSpace=wrap;html=1;container=1;collapsible=0;recursiveResize=0;verticalAlign=top;spacingTop=36;labelBackgroundColor=#ffffff;outlineConnect=0;size=39;fillColor=#ffff88;strokeColor=#36393d;" parent="1" vertex="1">
          <mxGeometry x="352" y="81" width="40" height="799" as="geometry" />
        </mxCell>
        <mxCell id="vCzybXFXyTB3erlj9CWv-16" value="" style="html=1;points=[];perimeter=orthogonalPerimeter;fillColor=#ffe6cc;strokeColor=#d79b00;" parent="vCzybXFXyTB3erlj9CWv-15" vertex="1">
          <mxGeometry x="15" y="80" width="10" height="180" as="geometry" />
        </mxCell>
        <mxCell id="vCzybXFXyTB3erlj9CWv-17" value="" style="html=1;points=[];perimeter=orthogonalPerimeter;fillColor=#ffe6cc;strokeColor=#d79b00;" parent="vCzybXFXyTB3erlj9CWv-15" vertex="1">
          <mxGeometry x="15" y="399" width="10" height="121" as="geometry" />
        </mxCell>
        <mxCell id="zV_Ak3CHPYqPiz6S4uV9-14" value="" style="html=1;points=[];perimeter=orthogonalPerimeter;fillColor=#ffe6cc;strokeColor=#d79b00;" parent="vCzybXFXyTB3erlj9CWv-15" vertex="1">
          <mxGeometry x="15" y="550" width="10" height="220" as="geometry" />
        </mxCell>
        <mxCell id="zV_Ak3CHPYqPiz6S4uV9-16" value="confirmaCompradeCreditos(transacao)" style="edgeStyle=orthogonalEdgeStyle;html=1;align=left;spacingLeft=2;endArrow=block;rounded=0;entryX=1;entryY=0;exitX=1;exitY=0.3;exitDx=0;exitDy=0;exitPerimeter=0;" parent="vCzybXFXyTB3erlj9CWv-15" source="zV_Ak3CHPYqPiz6S4uV9-14" target="zV_Ak3CHPYqPiz6S4uV9-15" edge="1">
          <mxGeometry relative="1" as="geometry">
            <mxPoint x="30" y="571" as="sourcePoint" />
            <Array as="points">
              <mxPoint x="78" y="616" />
              <mxPoint x="78" y="635" />
            </Array>
          </mxGeometry>
        </mxCell>
        <mxCell id="zV_Ak3CHPYqPiz6S4uV9-15" value="" style="html=1;points=[];perimeter=orthogonalPerimeter;strokeColor=#d79b00;fillColor=#ffe6cc;" parent="vCzybXFXyTB3erlj9CWv-15" vertex="1">
          <mxGeometry x="20" y="635" width="10" height="105" as="geometry" />
        </mxCell>
        <mxCell id="vCzybXFXyTB3erlj9CWv-19" value="login" style="html=1;verticalAlign=bottom;endArrow=block;entryX=0;entryY=0;" parent="1" source="vCzybXFXyTB3erlj9CWv-10" target="vCzybXFXyTB3erlj9CWv-16" edge="1">
          <mxGeometry relative="1" as="geometry">
            <mxPoint x="245" y="161" as="sourcePoint" />
          </mxGeometry>
        </mxCell>
        <mxCell id="vCzybXFXyTB3erlj9CWv-20" value="contexto + capabilities" style="html=1;verticalAlign=bottom;endArrow=open;dashed=1;endSize=8;exitX=0;exitY=0.889;exitDx=0;exitDy=0;exitPerimeter=0;" parent="1" source="vCzybXFXyTB3erlj9CWv-16" target="vCzybXFXyTB3erlj9CWv-10" edge="1">
          <mxGeometry relative="1" as="geometry">
            <mxPoint x="245" y="237" as="targetPoint" />
          </mxGeometry>
        </mxCell>
        <mxCell id="vCzybXFXyTB3erlj9CWv-21" value="contexto := ALUNO" style="html=1;verticalAlign=bottom;endArrow=open;dashed=1;endSize=8;exitX=0;exitY=0.95;" parent="1" source="vCzybXFXyTB3erlj9CWv-14" target="vCzybXFXyTB3erlj9CWv-16" edge="1">
          <mxGeometry relative="1" as="geometry">
            <mxPoint x="365" y="237" as="targetPoint" />
          </mxGeometry>
        </mxCell>
        <mxCell id="vCzybXFXyTB3erlj9CWv-22" value="login" style="html=1;verticalAlign=bottom;endArrow=block;entryX=0;entryY=0;" parent="1" source="vCzybXFXyTB3erlj9CWv-15" target="vCzybXFXyTB3erlj9CWv-14" edge="1">
          <mxGeometry relative="1" as="geometry">
            <mxPoint x="365" y="161" as="sourcePoint" />
          </mxGeometry>
        </mxCell>
        <mxCell id="vCzybXFXyTB3erlj9CWv-23" value="login" style="html=1;verticalAlign=bottom;endArrow=block;" parent="1" source="vCzybXFXyTB3erlj9CWv-12" edge="1">
          <mxGeometry width="80" relative="1" as="geometry">
            <mxPoint x="100" y="160" as="sourcePoint" />
            <mxPoint x="193" y="157" as="targetPoint" />
          </mxGeometry>
        </mxCell>
        <mxCell id="vCzybXFXyTB3erlj9CWv-24" value="dashboard" style="html=1;verticalAlign=bottom;endArrow=open;dashed=1;endSize=8;exitX=-0.4;exitY=0.395;exitDx=0;exitDy=0;exitPerimeter=0;" parent="1" source="vCzybXFXyTB3erlj9CWv-10" target="vCzybXFXyTB3erlj9CWv-12" edge="1">
          <mxGeometry x="-0.0576" y="-16" relative="1" as="geometry">
            <mxPoint x="180" y="400" as="sourcePoint" />
            <mxPoint x="99.5" y="341.03999999999996" as="targetPoint" />
            <mxPoint as="offset" />
          </mxGeometry>
        </mxCell>
        <mxCell id="vCzybXFXyTB3erlj9CWv-29" value="user.getCapacidades()" style="html=1;verticalAlign=bottom;endArrow=block;" parent="1" source="vCzybXFXyTB3erlj9CWv-16" target="vCzybXFXyTB3erlj9CWv-13" edge="1">
          <mxGeometry relative="1" as="geometry">
            <mxPoint x="527" y="260" as="sourcePoint" />
            <mxPoint x="510" y="291" as="targetPoint" />
          </mxGeometry>
        </mxCell>
        <mxCell id="vCzybXFXyTB3erlj9CWv-30" value="return" style="html=1;verticalAlign=bottom;endArrow=open;dashed=1;endSize=8;" parent="1" source="vCzybXFXyTB3erlj9CWv-13" target="vCzybXFXyTB3erlj9CWv-16" edge="1">
          <mxGeometry relative="1" as="geometry">
            <mxPoint x="527" y="336" as="targetPoint" />
            <mxPoint x="635" y="319" as="sourcePoint" />
          </mxGeometry>
        </mxCell>
        <mxCell id="vCzybXFXyTB3erlj9CWv-31" style="edgeStyle=orthogonalEdgeStyle;rounded=0;orthogonalLoop=1;jettySize=auto;html=1;entryX=0.9;entryY=0.9;entryDx=0;entryDy=0;entryPerimeter=0;dashed=1;endArrow=none;endFill=0;" parent="1" source="vCzybXFXyTB3erlj9CWv-32" target="vCzybXFXyTB3erlj9CWv-11" edge="1">
          <mxGeometry relative="1" as="geometry" />
        </mxCell>
        <mxCell id="vCzybXFXyTB3erlj9CWv-32" value="&lt;blockquote style=&quot;margin: 0 0 0 40px ; border: none ; padding: 0px&quot;&gt;&lt;/blockquote&gt;&lt;span&gt;A estratÃ©gia&lt;/span&gt;&lt;br&gt;&lt;blockquote style=&quot;margin: 0 0 0 40px ; border: none ; padding: 0px&quot;&gt;&lt;/blockquote&gt;&lt;span&gt;mostra a tela especÃ­fica para&lt;/span&gt;&lt;br&gt;&lt;blockquote style=&quot;margin: 0 0 0 40px ; border: none ; padding: 0px&quot;&gt; &lt;/blockquote&gt;&lt;span&gt;o usuÃ¡rio que&lt;/span&gt;&lt;br&gt; efetuou login" style="shape=note;whiteSpace=wrap;html=1;size=9;verticalAlign=top;align=left;spacingTop=-6;fillColor=#f5f5f5;strokeColor=#666666;fontColor=#333333;" parent="1" vertex="1">
          <mxGeometry x="250" y="372" width="100" height="80" as="geometry" />
        </mxCell>
        <mxCell id="vCzybXFXyTB3erlj9CWv-34" value="compra" style="html=1;verticalAlign=bottom;endArrow=block;" parent="1" source="vCzybXFXyTB3erlj9CWv-12" edge="1">
          <mxGeometry width="80" relative="1" as="geometry">
            <mxPoint x="100" y="480" as="sourcePoint" />
            <mxPoint x="195" y="480" as="targetPoint" />
          </mxGeometry>
        </mxCell>
        <mxCell id="vCzybXFXyTB3erlj9CWv-35" value="compraCreditos(filtro)" style="html=1;verticalAlign=bottom;endArrow=block;entryX=0;entryY=0;" parent="1" target="vCzybXFXyTB3erlj9CWv-17" edge="1">
          <mxGeometry relative="1" as="geometry">
            <mxPoint x="210" y="480" as="sourcePoint" />
          </mxGeometry>
        </mxCell>
        <mxCell id="vCzybXFXyTB3erlj9CWv-41" value="redirecionaPagamento" style="html=1;verticalAlign=bottom;endArrow=block;entryX=0;entryY=0.033;entryDx=0;entryDy=0;entryPerimeter=0;" parent="1" source="vCzybXFXyTB3erlj9CWv-17" target="EHY2T_jAwzOYD8GRNngQ-4" edge="1">
          <mxGeometry x="-0.2607" y="3" relative="1" as="geometry">
            <mxPoint x="378" y="556" as="sourcePoint" />
            <mxPoint as="offset" />
            <mxPoint x="844" y="545" as="targetPoint" />
          </mxGeometry>
        </mxCell>
        <mxCell id="vCzybXFXyTB3erlj9CWv-52" value="confirma" style="html=1;verticalAlign=bottom;endArrow=open;dashed=1;endSize=8;exitX=-0.1;exitY=0.994;exitDx=0;exitDy=0;exitPerimeter=0;" parent="1" source="vCzybXFXyTB3erlj9CWv-10" target="vCzybXFXyTB3erlj9CWv-12" edge="1">
          <mxGeometry relative="1" as="geometry">
            <mxPoint x="194" y="600" as="sourcePoint" />
            <mxPoint x="103.5" y="770.5" as="targetPoint" />
          </mxGeometry>
        </mxCell>
        <mxCell id="EHY2T_jAwzOYD8GRNngQ-5" style="edgeStyle=orthogonalEdgeStyle;rounded=0;orthogonalLoop=1;jettySize=auto;html=1;endArrow=none;endFill=0;dashed=1;" parent="1" source="EHY2T_jAwzOYD8GRNngQ-1" edge="1">
          <mxGeometry relative="1" as="geometry">
            <mxPoint x="802" y="730" as="targetPoint" />
          </mxGeometry>
        </mxCell>
        <mxCell id="EHY2T_jAwzOYD8GRNngQ-1" value="Checkout Manager" style="shape=umlActor;verticalLabelPosition=bottom;labelBackgroundColor=#ffffff;verticalAlign=top;html=1;outlineConnect=0;" parent="1" vertex="1">
          <mxGeometry x="792.5" y="344" width="19" height="41" as="geometry" />
        </mxCell>
        <mxCell id="zV_Ak3CHPYqPiz6S4uV9-38" style="edgeStyle=orthogonalEdgeStyle;rounded=1;orthogonalLoop=1;jettySize=auto;html=1;exitX=0;exitY=0.75;exitDx=0;exitDy=0;entryX=1.1;entryY=0.636;entryDx=0;entryDy=0;entryPerimeter=0;dashed=1;verticalAlign=bottom;endArrow=open;endSize=8;" parent="1" source="EHY2T_jAwzOYD8GRNngQ-3" target="vCzybXFXyTB3erlj9CWv-17" edge="1">
          <mxGeometry relative="1" as="geometry">
            <mxPoint x="420" y="558" as="targetPoint" />
          </mxGeometry>
        </mxCell>
        <mxCell id="zV_Ak3CHPYqPiz6S4uV9-42" style="edgeStyle=orthogonalEdgeStyle;rounded=0;orthogonalLoop=1;jettySize=auto;html=1;dashed=1;endFill=0;endArrow=none;" parent="1" source="EHY2T_jAwzOYD8GRNngQ-3" edge="1">
          <mxGeometry relative="1" as="geometry">
            <mxPoint x="878" y="850" as="targetPoint" />
          </mxGeometry>
        </mxCell>
        <mxCell id="EHY2T_jAwzOYD8GRNngQ-3" value=":Transacao" style="html=1;comic=0;gradientColor=none;shadow=1;strokeColor=#36393d;fillColor=#cce5ff;" parent="1" vertex="1">
          <mxGeometry x="840.5" y="527" width="75" height="40" as="geometry" />
        </mxCell>
        <mxCell id="EHY2T_jAwzOYD8GRNngQ-4" value="" style="html=1;points=[];perimeter=orthogonalPerimeter;strokeColor=#d79b00;fillColor=#ffe6cc;" parent="1" vertex="1">
          <mxGeometry x="797" y="586" width="10" height="54" as="geometry" />
        </mxCell>
        <mxCell id="EHY2T_jAwzOYD8GRNngQ-7" value="callbackConfirmaStatus()" style="html=1;verticalAlign=bottom;endArrow=block;dashed=1;entryX=1.2;entryY=0.038;entryDx=0;entryDy=0;entryPerimeter=0;exitX=-0.2;exitY=0.981;exitDx=0;exitDy=0;exitPerimeter=0;" parent="1" source="EHY2T_jAwzOYD8GRNngQ-4" target="zV_Ak3CHPYqPiz6S4uV9-14" edge="1">
          <mxGeometry x="0.2713" y="-4" relative="1" as="geometry">
            <mxPoint x="750" y="637" as="sourcePoint" />
            <mxPoint x="377" y="585" as="targetPoint" />
            <mxPoint as="offset" />
          </mxGeometry>
        </mxCell>
        <mxCell id="EHY2T_jAwzOYD8GRNngQ-14" value="confirma" style="html=1;verticalAlign=bottom;endArrow=open;dashed=1;endSize=8;entryX=0.9;entryY=0.982;entryDx=0;entryDy=0;entryPerimeter=0;exitX=-0.2;exitY=0.941;exitDx=0;exitDy=0;exitPerimeter=0;" parent="1" source="zV_Ak3CHPYqPiz6S4uV9-14" target="vCzybXFXyTB3erlj9CWv-10" edge="1">
          <mxGeometry relative="1" as="geometry">
            <mxPoint x="340" y="779" as="sourcePoint" />
            <mxPoint x="230" y="590" as="targetPoint" />
          </mxGeometry>
        </mxCell>
        <mxCell id="zV_Ak3CHPYqPiz6S4uV9-4" value=":Conta" style="html=1;comic=0;gradientColor=none;shadow=1;strokeColor=#36393d;fillColor=#cce5ff;" parent="1" vertex="1">
          <mxGeometry x="957" y="464.5" width="75" height="40" as="geometry" />
        </mxCell>
        <mxCell id="zV_Ak3CHPYqPiz6S4uV9-11" style="edgeStyle=orthogonalEdgeStyle;rounded=0;orthogonalLoop=1;jettySize=auto;html=1;exitX=0.5;exitY=1;exitDx=0;exitDy=0;dashed=1;endFill=0;endArrow=none;" parent="1" source="zV_Ak3CHPYqPiz6S4uV9-4" target="zV_Ak3CHPYqPiz6S4uV9-9" edge="1">
          <mxGeometry relative="1" as="geometry">
            <mxPoint x="878" y="579" as="sourcePoint" />
          </mxGeometry>
        </mxCell>
        <mxCell id="zV_Ak3CHPYqPiz6S4uV9-8" value="concluiTransacao(id)" style="html=1;verticalAlign=bottom;endArrow=block;entryX=0;entryY=0.019;entryDx=0;entryDy=0;entryPerimeter=0;exitX=1.2;exitY=0.419;exitDx=0;exitDy=0;exitPerimeter=0;" parent="1" target="zV_Ak3CHPYqPiz6S4uV9-41" edge="1" source="zV_Ak3CHPYqPiz6S4uV9-15">
          <mxGeometry width="80" relative="1" as="geometry">
            <mxPoint x="383" y="686" as="sourcePoint" />
            <mxPoint x="706.5" y="630.5" as="targetPoint" />
          </mxGeometry>
        </mxCell>
        <mxCell id="zV_Ak3CHPYqPiz6S4uV9-48" style="rounded=1;orthogonalLoop=1;jettySize=auto;html=1;exitX=0.05;exitY=0.833;exitDx=0;exitDy=0;exitPerimeter=0;dashed=1;verticalAlign=bottom;endArrow=open;endSize=8;entryX=1;entryY=0.769;entryDx=0;entryDy=0;entryPerimeter=0;" parent="1" source="zV_Ak3CHPYqPiz6S4uV9-9" edge="1" target="zV_Ak3CHPYqPiz6S4uV9-41">
          <mxGeometry relative="1" as="geometry">
            <mxPoint x="885" y="702" as="targetPoint" />
          </mxGeometry>
        </mxCell>
        <mxCell id="zV_Ak3CHPYqPiz6S4uV9-9" value="" style="html=1;points=[];perimeter=orthogonalPerimeter;strokeColor=#d79b00;fillColor=#ffe6cc;" parent="1" vertex="1">
          <mxGeometry x="989.5" y="760" width="10" height="48" as="geometry" />
        </mxCell>
        <mxCell id="zV_Ak3CHPYqPiz6S4uV9-30" value="getConta()" style="rounded=0;orthogonalLoop=1;jettySize=auto;html=1;exitX=1.1;exitY=0.025;exitDx=0;exitDy=0;exitPerimeter=0;" parent="1" source="vCzybXFXyTB3erlj9CWv-17" edge="1">
          <mxGeometry x="-0.0315" y="16" relative="1" as="geometry">
            <mxPoint x="510" y="483" as="targetPoint" />
            <mxPoint as="offset" />
          </mxGeometry>
        </mxCell>
        <mxCell id="zV_Ak3CHPYqPiz6S4uV9-31" value="load" style="rounded=0;orthogonalLoop=1;jettySize=auto;html=1;entryX=0;entryY=0.5;entryDx=0;entryDy=0;exitX=1.2;exitY=0.129;exitDx=0;exitDy=0;exitPerimeter=0;" parent="1" source="DbyMc_lAmt4OfeUwP1Hg-8" target="zV_Ak3CHPYqPiz6S4uV9-4" edge="1">
          <mxGeometry x="0.4441" y="15" relative="1" as="geometry">
            <mxPoint as="offset" />
            <mxPoint x="644" y="485.01" as="sourcePoint" />
          </mxGeometry>
        </mxCell>
        <mxCell id="zV_Ak3CHPYqPiz6S4uV9-32" value="return" style="html=1;verticalAlign=bottom;endArrow=open;dashed=1;endSize=8;entryX=1.2;entryY=0.231;entryDx=0;entryDy=0;entryPerimeter=0;exitX=-0.2;exitY=0.903;exitDx=0;exitDy=0;exitPerimeter=0;" parent="1" source="DbyMc_lAmt4OfeUwP1Hg-8" target="vCzybXFXyTB3erlj9CWv-17" edge="1">
          <mxGeometry relative="1" as="geometry">
            <mxPoint x="500" y="508" as="sourcePoint" />
            <mxPoint x="386" y="538.0329999999999" as="targetPoint" />
          </mxGeometry>
        </mxCell>
        <mxCell id="zV_Ak3CHPYqPiz6S4uV9-33" value="" style="html=1;verticalAlign=bottom;endArrow=open;dashed=1;endSize=8;exitX=0;exitY=1;exitDx=0;exitDy=0;entryX=1.2;entryY=0.742;entryDx=0;entryDy=0;entryPerimeter=0;" parent="1" source="zV_Ak3CHPYqPiz6S4uV9-4" target="DbyMc_lAmt4OfeUwP1Hg-8" edge="1">
          <mxGeometry relative="1" as="geometry">
            <mxPoint x="830" y="510" as="sourcePoint" />
            <mxPoint x="550" y="494" as="targetPoint" />
          </mxGeometry>
        </mxCell>
        <mxCell id="zV_Ak3CHPYqPiz6S4uV9-36" value="criaTransacao(valor)" style="html=1;verticalAlign=bottom;endArrow=block;entryX=0;entryY=0.5;entryDx=0;entryDy=0;" parent="1" target="EHY2T_jAwzOYD8GRNngQ-3" edge="1">
          <mxGeometry x="-0.3878" y="7" width="80" relative="1" as="geometry">
            <mxPoint x="380" y="547" as="sourcePoint" />
            <mxPoint x="870" y="547" as="targetPoint" />
            <mxPoint as="offset" />
          </mxGeometry>
        </mxCell>
        <mxCell id="zV_Ak3CHPYqPiz6S4uV9-45" style="rounded=1;orthogonalLoop=1;jettySize=auto;html=1;entryX=0.9;entryY=0.857;entryDx=0;entryDy=0;entryPerimeter=0;exitX=-0.3;exitY=0.939;exitDx=0;exitDy=0;exitPerimeter=0;dashed=1;verticalAlign=bottom;endArrow=open;endSize=8;" parent="1" source="zV_Ak3CHPYqPiz6S4uV9-41" target="zV_Ak3CHPYqPiz6S4uV9-15" edge="1">
          <mxGeometry relative="1" as="geometry" />
        </mxCell>
        <mxCell id="zV_Ak3CHPYqPiz6S4uV9-46" value="adicionaCredito()" style="rounded=0;orthogonalLoop=1;jettySize=auto;html=1;entryX=-0.05;entryY=0.042;entryDx=0;entryDy=0;entryPerimeter=0;exitX=1;exitY=0.058;exitDx=0;exitDy=0;exitPerimeter=0;" parent="1" target="zV_Ak3CHPYqPiz6S4uV9-9" edge="1" source="zV_Ak3CHPYqPiz6S4uV9-41">
          <mxGeometry x="-0.1" y="15" relative="1" as="geometry">
            <mxPoint x="885" y="685" as="sourcePoint" />
            <mxPoint x="980" y="686" as="targetPoint" />
            <mxPoint as="offset" />
          </mxGeometry>
        </mxCell>
        <mxCell id="zV_Ak3CHPYqPiz6S4uV9-41" value="" style="html=1;points=[];perimeter=orthogonalPerimeter;strokeColor=#d79b00;fillColor=#ffe6cc;" parent="1" vertex="1">
          <mxGeometry x="873" y="760" width="10" height="52" as="geometry" />
        </mxCell>
      </root>
    </mxGraphModel>
  </diagram>
</mxfile>
